<?xml version="1.0" standalone="no"?><!DOCTYPE svg PUBLIC "-//W3C//DTD SVG 1.1//EN" "http://www.w3.org/Graphics/SVG/1.1/DTD/svg11.dtd"><svg t="1736925280900" class="icon" viewBox="0 0 1024 1024" version="1.1" xmlns="http://www.w3.org/2000/svg" p-id="4138" xmlns:xlink="http://www.w3.org/1999/xlink" width="200" height="200"><path d="M420.571429 731.428571h438.857142a36.571429 36.571429 0 1 1 0 73.142858H420.571429a36.571429 36.571429 0 1 1 0-73.142858z m0-146.285714h292.571428a36.571429 36.571429 0 1 1 0 73.142857H420.571429a36.571429 36.571429 0 1 1 0-73.142857z m0-146.285714h146.285714a36.571429 36.571429 0 1 1 0 73.142857h-146.285714a36.571429 36.571429 0 1 1 0-73.142857z" p-id="4139"></path><path d="M277.942857 182.857143c10.550857 0 20.077714 4.48 26.752 11.648l0.932572 0.914286 129.298285 129.28a36.571429 36.571429 0 0 1-51.712 51.730285l-68.717714-68.717714V804.571429a36.571429 36.571429 0 1 1-73.142857 0V307.2l-69.211429 69.229714a36.571429 36.571429 0 0 1-51.712-51.730285l129.28-129.28c1.462857-1.462857 2.980571-2.742857 4.571429-3.894858 6.381714-5.412571 14.628571-8.667429 23.643428-8.667428z" p-id="4140"></path></svg>