<?xml version="1.0" standalone="no"?><!DOCTYPE svg PUBLIC "-//W3C//DTD SVG 1.1//EN" "http://www.w3.org/Graphics/SVG/1.1/DTD/svg11.dtd"><svg t="1736925315936" class="icon" viewBox="0 0 1024 1024" version="1.1" xmlns="http://www.w3.org/2000/svg" p-id="5108" xmlns:xlink="http://www.w3.org/1999/xlink" width="200" height="200"><path d="M420.571429 219.428571h438.857142a36.571429 36.571429 0 1 1 0 73.142858H420.571429a36.571429 36.571429 0 1 1 0-73.142858z m0 146.285715h292.571428a36.571429 36.571429 0 1 1 0 73.142857H420.571429a36.571429 36.571429 0 1 1 0-73.142857z m0 146.285714h146.285714a36.571429 36.571429 0 1 1 0 73.142857h-146.285714a36.571429 36.571429 0 1 1 0-73.142857z" p-id="5109"></path><path d="M277.430857 841.142857a36.48 36.48 0 0 1-26.770286-11.648 37.229714 37.229714 0 0 1-0.932571-0.914286l-129.298286-129.28a36.571429 36.571429 0 0 1 51.712-51.730285l68.717715 68.717714V219.428571a36.571429 36.571429 0 0 1 73.142857 0v497.371429l69.211428-69.229714a36.571429 36.571429 0 0 1 51.712 51.730285l-129.28 129.28c-1.462857 1.462857-2.980571 2.742857-4.571428 3.894858-6.381714 5.412571-14.628571 8.667429-23.643429 8.667428z" p-id="5110"></path></svg>